# xmcd CD database file
# Copyright (C) 1993-1996 Ti Kan
#
# Track frame offsets:
# 150
# 14632
# 29297
# 43647
# 56015
# 68880
# 83030
# 93990
# 107122
# 118340
# 132270
# 144412
# 157417
# 171502
# 184485
# 196162
# 209270
# 221820
# 234012
# 245147
# 258502
# 273012
# 287325
# 301137
# 314557
# 326660
#
# Disc length: 4497 seconds
#
# Revision: 0
# Processed by: cddbd v1.4b41PL1 Copyright (c) Steve Scherf et al.
# Submitted via: inCDius 1.1b5
#
DISCID=8b118f1a
DTITLE=Ernest Tubb - Let's Say Goodbye Like We Said Hello - Disc 4
DYEAR=1900
DGENRE=
TTITLE0=The Strange Little Girl
TTITLE1=Kentucky Waltz
TTITLE2=Hey La La
TTITLE3=Rose Of The Mountains
TTITLE4=Precious Little Baby
TTITLE5=I'm With A Crowd But So Alone
TTITLE6=So Many Times
TTITLE7=My Mother Must Have Been A Girl Like You
TTITLE8=Somebody's Stolen My Honey
TTITLE9=A Heartsick Soldier On A Heartbreak Ridge
TTITLE10=I'm In Love With Molly
TTITLE11=Too  Old To Cut The Mustard 
TTITLE12=Missing In Action
TTITLE13=I Will Miss You When You Go
TTITLE14=Fortunes In Memories
TTITLE15=Dear Judge
TTITLE16=Don't Brush Them On Me
TTITLE17=I Love Everythiing You Do
TTITLE18=Somebody Loves You
TTITLE19=Don't Trifle On Your Sweetheart 
TTITLE20=Hank It Will Never Be The Same Without You
TTITLE21=Beyond The Sunset
TTITLE22=When Jimmie Rogers Said Good Bye
TTITLE23=Jimmie Rogers Last Thoughts
TTITLE24=My Wasted Past
TTITLE25=Counterfeit Kisses
EXTD=
EXTT0=With Red Foley
EXTT1=With Red Foley
EXTT2=
EXTT3=
EXTT4=
EXTT5=
EXTT6=
EXTT7=
EXTT8=
EXTT9=
EXTT10=With Red Foley
EXTT11=
EXTT12=
EXTT13=
EXTT14=
EXTT15=
EXTT16=
EXTT17=
EXTT18=
EXTT19=
EXTT20=
EXTT21=
EXTT22=
EXTT23=
EXTT24=
EXTT25=
PLAYORDER=
